<?xml version="1.0" standalone="no"?>
<!DOCTYPE svg PUBLIC "-//W3C//DTD SVG 20010904//EN"
 "http://www.w3.org/TR/2001/REC-SVG-20010904/DTD/svg10.dtd">
<svg version="1.0" xmlns="http://www.w3.org/2000/svg"
 width="848.000000pt" height="848.000000pt" viewBox="0 0 848.000000 848.000000"
 preserveAspectRatio="xMidYMid meet">
<metadata>
Created by potrace 1.14, written by Peter Selinger 2001-2017
</metadata>
<g transform="translate(0.000000,848.000000) scale(0.100000,-0.100000)"
fill="#000000" stroke="none">
<path d="M866 6789 c-90 -29 -206 -90 -252 -134 -6 -5 -22 -19 -35 -31 -53
-46 -157 -174 -142 -174 4 0 3 -4 -3 -8 -11 -7 -47 -81 -72 -147 -13 -35 -15
-225 -16 -1505 -1 -1059 1 -1479 9 -1515 11 -45 55 -148 88 -200 20 -33 110
-138 146 -170 79 -72 245 -154 341 -170 25 -4 54 -10 65 -12 11 -3 486 -6
1055 -7 l1035 -1 3 -355 2 -355 -657 -1 -658 0 -45 -23 c-191 -98 -196 -353
-9 -453 l44 -23 2336 -3 c2144 -2 2339 -1 2384 14 52 18 114 73 141 126 22 43
30 144 13 183 -7 17 -13 33 -13 36 -2 10 -51 79 -57 79 -3 0 -16 9 -29 20 -48
41 -79 43 -725 43 -341 1 -622 4 -625 8 -4 6 -5 681 -1 699 0 3 450 5 999 5
l997 0 90 23 c49 12 131 43 181 68 l92 45 51 -31 c29 -16 54 -30 56 -30 2 0
46 -25 99 -55 52 -30 100 -55 105 -55 6 0 11 -4 11 -10 0 -5 9 -10 20 -10 11
0 20 -4 20 -8 0 -5 21 -19 46 -31 25 -13 80 -43 122 -67 42 -24 82 -44 88 -44
6 0 32 38 58 85 26 47 54 85 60 85 7 0 35 37 61 82 27 46 61 101 75 123 50 74
49 78 -27 122 -37 22 -127 76 -198 119 -72 44 -137 83 -145 87 -8 4 -35 21
-60 37 -25 16 -66 41 -91 55 -46 27 -47 27 -41 68 4 23 6 659 6 1412 l0 1370
-22 84 c-39 148 -100 258 -203 360 -48 48 -159 133 -179 137 -3 0 -25 10 -50
21 -25 11 -63 26 -85 33 -33 11 -592 14 -3224 14 -2912 1 -3188 0 -3235 -15z
m2110 -221 c2 -3 -17 -13 -43 -23 -169 -62 -387 -174 -551 -282 -166 -109
-385 -312 -495 -458 -4 -5 -21 -27 -37 -49 -17 -21 -30 -42 -30 -45 0 -4 -9
-17 -20 -29 -12 -12 -18 -22 -15 -22 3 0 -5 -15 -18 -32 -28 -38 -98 -181
-134 -277 -33 -87 -68 -228 -80 -326 -9 -67 -9 -329 -1 -385 18 -120 58 -275
91 -354 34 -82 143 -293 158 -306 3 -3 22 -29 42 -59 98 -143 265 -312 443
-450 82 -63 304 -201 325 -201 5 0 9 -4 9 -10 0 -5 4 -10 10 -10 5 0 47 -18
92 -40 46 -23 83 -40 83 -40 0 2 45 -16 95 -37 36 -16 234 -82 260 -87 8 -2
22 -6 30 -9 19 -7 147 -37 180 -43 109 -16 125 -24 49 -24 -645 -6 -2394 1
-2431 9 -141 32 -265 120 -339 241 -29 47 -59 135 -67 195 -4 33 -6 656 -6
1385 2 1191 4 1331 18 1380 20 68 21 70 31 95 12 30 90 138 115 158 85 71 183
120 264 132 22 3 41 7 42 8 5 4 1925 -1 1930 -5z m4149 1 c227 -8 420 -170
476 -399 11 -45 13 -304 14 -1368 0 -723 -3 -1315 -6 -1317 -3 -2 -22 7 -42
20 -20 14 -41 25 -46 25 -6 0 -11 5 -11 10 0 6 -5 10 -10 10 -6 0 -53 27 -106
60 -52 33 -99 60 -105 60 -5 0 -9 3 -9 8 0 4 -23 18 -50 31 -28 14 -50 28 -50
32 0 4 -8 9 -17 13 -10 3 -27 11 -38 18 -66 43 -127 78 -135 78 -6 0 -10 3
-10 8 0 4 -9 12 -21 17 -16 8 -254 151 -513 308 -51 31 -56 39 -41 66 28 52
81 222 90 291 2 14 4 25 5 25 1 0 3 11 6 25 39 247 15 524 -63 730 -14 36 -26
70 -27 75 -9 42 -155 310 -196 358 -22 26 -46 56 -65 84 -23 33 -280 293 -289
293 -3 0 -31 20 -61 45 -150 122 -381 252 -630 355 -11 5 -37 14 -57 20 -21 6
-40 15 -42 18 -4 6 1888 7 2049 1z m-1069 -2888 c5 -5 41 -26 79 -46 95 -51
182 -100 325 -180 41 -24 100 -56 130 -72 88 -48 153 -84 185 -103 17 -10 57
-32 90 -50 33 -19 74 -41 90 -51 17 -10 62 -34 100 -55 39 -20 78 -43 88 -52
9 -8 17 -11 17 -7 0 4 8 1 18 -7 9 -8 36 -24 60 -35 45 -22 44 -25 -17 -38
-12 -3 -31 -7 -43 -10 -32 -8 -2588 -8 -2595 -1 -4 3 9 6 28 6 19 0 50 4 69
10 19 5 46 11 60 14 14 3 37 8 51 10 100 21 353 106 469 158 164 73 409 208
418 230 2 4 8 8 13 8 11 0 167 119 219 166 19 18 55 51 79 73 47 44 52 46 67
32z"/>
</g>
</svg>
